<?xml version="1.0" encoding="UTF-8" standalone="no"?>
<svg
   class="main-svg"
   width="700"
   height="500"
   style=""
   viewBox="0 0 700 500"
   version="1.1"
   id="svg6409"
   sodipodi:docname="stateboundariesinternal.svg"
   inkscape:version="1.1 (ce6663b3b7, 2021-05-25)"
   inkscape:export-filename="/home/kavi/temp.png"
   inkscape:export-xdpi="280.54999"
   inkscape:export-ydpi="280.54999"
   xmlns:inkscape="http://www.inkscape.org/namespaces/inkscape"
   xmlns:sodipodi="http://sodipodi.sourceforge.net/DTD/sodipodi-0.dtd"
   xmlns="http://www.w3.org/2000/svg"
   xmlns:svg="http://www.w3.org/2000/svg">
  <sodipodi:namedview
     id="namedview6411"
     pagecolor="#ffffff"
     bordercolor="#666666"
     borderopacity="1.0"
     inkscape:pageshadow="2"
     inkscape:pageopacity="0.0"
     inkscape:pagecheckerboard="0"
     showgrid="false"
     inkscape:zoom="2"
     inkscape:cx="352.75"
     inkscape:cy="333.25"
     inkscape:window-width="3768"
     inkscape:window-height="2096"
     inkscape:window-x="72"
     inkscape:window-y="27"
     inkscape:window-maximized="1"
     inkscape:current-layer="svg6409" />
  <defs
     id="defs-b18bcc">
    <g
       class="clips"
       id="g5">
      <clipPath
         id="clipb18bccgeo">
        <rect
           x="-5.684341886080802e-14"
           y="66.9230769230769"
           width="700"
           height="366.1538461538462"
           id="rect2" />
      </clipPath>
    </g>
    <g
       class="gradients"
       id="g7" />
    <g
       class="patterns"
       id="g9" />
  </defs>
  <g
     class="bglayer"
     id="g12" />
  <g
     class="layer-below"
     id="g18">
    <g
       class="imagelayer"
       id="g14" />
    <g
       class="shapelayer"
       id="g16" />
  </g>
  <g
     class="cartesianlayer"
     id="g20" />
  <g
     class="polarlayer"
     id="g22" />
  <g
     class="ternarylayer"
     id="g24" />
  <path
     class="choroplethlocation"
     fill="rgba(0, 0, 0, 0)"
     d="m 443.77396,359.02157 -1.93635,-20.52231 0.15898,-21.66519 0.56402,-17.58732 -1.06776,-2.56771 13.69757,-1.2223 13.97455,-1.32037 4.69415,16.37735 4.11103,13.06121 2.0856,4.03414 1.2995,2.27409 -1.61951,2.61381 -0.10003,4.28221 0.87658,2.43721 -0.0186,2.42431 -0.0331,2.30986 0.93621,1.6211 0.76379,1.40976 -23.27989,2.56859 -6.46635,1.39637 -0.20693,1.05238 2.96854,2.95105 -0.35067,2.7878 -0.73519,1.90262"
     style="fill:none;stroke:#222222;stroke-width:0.5px;stroke-opacity:1"
     id="path6264"
     sodipodi:nodetypes="cccccccccccccccccccccccc" />
  <path
     class="choroplethlocation"
     fill="rgba(0, 0, 0, 0)"
     d="m 145.85294,312.7568 1.52121,-2.38812 1.43186,0.28471 1.79908,-2.33658 -1.64165,-2.19798 -0.0237,-2.11293 -0.0963,-2.47959 2.73161,-2.62071 2.04881,-5.92396 3.90425,-2.0505 -1.62143,-2.89365 -0.91167,-2.75855 -0.3693,-2.53621 -0.19912,-1.91677 -0.0539,-1.18424 1.23147,-2.57244 -0.0387,-2.70738 0.21759,-2.53967 0.58399,-2.9369 -0.46399,-1.9716 1.00088,-1.44487 2.19287,0.43386 1.88065,1.30694 1.26358,0.83164 1.07877,-1.90364 0.63533,-0.34714 1.9271,-10.7757 16.87988,2.85889 20.14249,3.42177 15.28445,2.346 -10.45623,75.73914"
     style="fill:none;stroke:#222222;stroke-width:0.5px;stroke-opacity:1"
     id="path6268"
     sodipodi:nodetypes="ccccccccccccccccccccccccccccccc" />
  <path
     class="choroplethlocation"
     fill="rgba(0, 0, 0, 0)"
     d="m 424.30649,283.99034 -0.063,1.15861 -0.84982,2.01849 -1.87946,1.39105 -0.27506,2.3253 -1.57982,1.82928 0.38215,3.89827 -1.19508,1.3417 -0.072,1.1575 -1.92912,1.03708 0.11424,1.95311 -1.35298,3.76626 -1.09551,0.86842 -1.89829,1.94756 -0.9978,2.81753 -2.19869,4.83403 -0.12642,3.2287 1.48295,3.4911 -0.44519,2.6682 -9.46363,-0.0199 -12.19082,0.902 -10.76013,0.274 0.56485,-7.71132 -2.60086,-0.0633 -2.16165,0.26794 -0.59233,-0.90999 0.0956,-11.84824 0.0679,-13.12474 -2.45911,-14.2467 13.05896,-0.15652 11.80773,-0.27512 11.24414,-0.49961 12.25871,0.121 0.934,1.55774 -1.15899,1.57272 -1.02333,1.56289 -0.62149,1.30682 z"
     style="stroke:#222222;stroke-width:0.5px;stroke-opacity:1;fill:none"
     id="path6270" />
  <path
     class="choroplethlocation"
     fill="rgba(0, 0, 0, 0)"
     d="m 80.846147,164.1185 40.132563,11.42826 -10.15217,39.34763 14.68731,22.51035 14.63004,21.63594 14.2288,20.60104 0.0539,1.18424 0.19912,1.91677 0.3693,2.53621 0.91167,2.75855 1.62143,2.89365 -3.90425,2.0505 -2.04881,5.92396 -2.73161,2.62071 0.0963,2.47959 0.0237,2.11293 1.64165,2.19798 -1.79908,2.33658 -1.43186,-0.28471"
     style="fill:none;stroke:#222222;stroke-width:0.5px;stroke-opacity:1"
     id="path6272"
     sodipodi:nodetypes="ccccccccccccccccccc" />
  <path
     class="choroplethlocation"
     fill="rgba(0, 0, 0, 0)"
     d="m 294.67323,230.37513 -1.33264,20.92708 -1.25974,19.7824 -10.19318,-0.70092 -12.66186,-1.01524 -18.00513,-1.7204 -16.60086,-1.87548 -16.43077,-2.13109 7.29139,-53.77008 9.97232,1.32464 9.98573,1.21954 20.00721,2.1232 10.029,0.78877 20.06188,1.48986 -0.84139,13.2129 z"
     style="stroke:#222222;stroke-width:0.5px;stroke-opacity:1;fill:none"
     id="path6274" />
  <path
     class="choroplethlocation"
     fill="rgba(0, 0, 0, 0)"
     d="m 578.89516,193.1353 -0.20753,-0.3053 -0.65567,-1.61793 1.73224,-1.71798 -1.029,-0.93541 -1.79542,-10.2128 7.42973,-1.58809 8.94308,-1.92512 1.97889,7.08896 -0.13659,2.05605"
     style="fill:none;stroke:#222222;stroke-width:0.5px;stroke-opacity:1"
     id="path6276"
     sodipodi:nodetypes="cccccccccc" />
  <path
     class="choroplethlocation"
     fill="rgba(0, 0, 0, 0)"
     d="m 572.56956,229.48094 -6.74237,1.48579 -4.31063,-16.75094 0.43045,-1.15383 0.78637,-0.76017 2.35381,0.19217 -1.26263,1.69203"
     style="fill:none;stroke:#222222;stroke-width:0.5px;stroke-opacity:1"
     id="path6278"
     sodipodi:nodetypes="ccccccc" />
  <path
     class="choroplethlocation"
     fill="rgba(0, 0, 0, 0)"
     d="m 551.39879,229.27874 -0.15983,-0.79066 -1.01925,-0.96995 0.65394,-0.83724 1.61582,1.20076 z"
     style="stroke:#222222;stroke-width:0.5px;stroke-opacity:1;fill:none"
     id="path6280" />
  <path
     class="choroplethlocation"
     fill="rgba(0, 0, 0, 0)"
     d="m 454.09002,359.64023 0.73519,-1.90262 0.35067,-2.7878 -2.96854,-2.95105 0.20693,-1.05238 6.46635,-1.39637 23.27989,-2.56859 2.05819,3.44647 11.67446,-0.74662 18.67922,-0.60091 1.23937,2.24567 1.30323,-1.46353 -0.68729,-4.63956 1.26365,-0.65077 2.51953,0.66226 2.40138,-0.13532"
     style="fill:none;stroke:#222222;stroke-width:0.5px;stroke-opacity:1"
     id="path6282"
     sodipodi:nodetypes="cccccccccccccccc" />
  <path
     class="choroplethlocation"
     fill="rgba(0, 0, 0, 0)"
     d="m 522.61217,345.09911 -2.40138,0.13532 -2.51953,-0.66226 -1.26365,0.65077 0.68729,4.63956 -1.30323,1.46353 -1.23937,-2.24567 -18.67922,0.60091 -11.67446,0.74662 -2.05811,-3.44647 -0.76379,-1.40976 -0.93621,-1.6211 0.0331,-2.30986 0.0186,-2.42431 -0.87658,-2.43721 0.10003,-4.28221 1.61951,-2.61381 -1.2995,-2.27409 -2.0856,-4.03414 -4.11103,-13.06121 -4.69415,-16.37735 8.32549,-0.83074 5.75808,-0.81053 13.5135,-1.64269 -1.10994,1.3128 -1.35227,2.73697 3.27348,1.87919 1.94738,0.54476 2.71358,3.91846 1.61666,2.21052 4.30328,2.63332 0.96274,1.60191 2.8917,1.78023 1.76525,2.98896 3.98682,2.0664 1.19186,2.95352 0.94946,1.36332 -0.27503,1.08807 2.25329,1.15925 1.55046,2.31176 0.39338,2.49296 1.10689,0.40542 1.99834,0.37774"
     style="fill:none;stroke:#222222;stroke-width:0.5px;stroke-opacity:1"
     id="path6284"
     sodipodi:nodetypes="ccccccccccccccccccccccccccccccccccccccccccc" />
  <path
     class="choroplethlocation"
     fill="rgba(0, 0, 0, 0)"
     d="m 178.75871,92.659994 -2.21748,13.734606 1.55974,4.03529 -0.49012,2.32961 1.303,2.47467 1.72887,1.63274 1.1089,2.31328 1.76964,4.5316 1.85991,2.34219 2.81005,0.66788 -1.65317,2.80724 -1.48919,3.18879 0.0333,3.60689 -1.22867,0.57162 -0.54288,3.38082 1.41642,1.67361 2.10528,-1.21862 1.304,-1.60767 1.01369,0.54241 0.73864,1.99851 0.29972,4.35508 1.37621,2.00078 -0.0414,3.59575 0.31949,0.98937 1.88412,0.6951 0.74821,2.11239 1.08141,3.79945 2.05506,-1.60946 2.95961,1.10087 0.47975,-1.3102 5.24909,1.70767 2.13837,0.008 1.7904,-2.48786 1.02606,0.6306 0.56422,1.94521 0.97596,0.96792 0.20915,0.26518 -5.28302,33.07473 -29.06831,-4.99449 -29.10206,-6.18402 5.56118,-23.57289 1.58549,-3.63621 -0.35492,-1.83991 -1.5006,-1.27764 0.48085,-2.12082 1.98691,-2.60057 2.5311,-2.24536 2.26439,-3.94526 2.05536,-3.05466 1.20296,-1.48886 -0.0377,-2.11038 -1.30176,-1.45439 -1.59211,-2.92335 0.64053,-2.30852 -0.37806,-2.18535 3.85093,-18.22752 3.60597,-16.565164"
     style="fill:none;stroke:#222222;stroke-width:0.5px;stroke-opacity:1"
     id="path6288"
     sodipodi:nodetypes="ccccccccccccccccccccccccccccccccccccccccccccccccccccccccc" />
  <path
     class="choroplethlocation"
     fill="rgba(0, 0, 0, 0)"
     d="m 440.45961,205.55554 1.39404,15.58611 1.2623,15.61323 -0.73076,3.88204 0.88348,0.84714 0.75087,2.36245 0.15422,1.72167 -0.85878,1.00209 -0.48043,2.24053 -1.90022,3.17267 -1.1873,3.68649 -0.1761,2.79055 0.22282,1.02221 -1.07396,1.93984 1.06094,1.18387 -1.82852,1.19196 -2.23455,1.3362 0.6401,2.83922 -1.28365,1.25754 -2.70932,-1.06247 -2.79853,-0.48506 -0.73267,1.32421 0.5628,2.03892 -1.93795,-1.94054 -1.21374,0.43181 -1.46628,-3.24877 0.13219,-2.08835 -0.9031,-3.17279 -1.12213,-0.38639 -2.9119,-2.69672 -1.23124,-0.0373 -2.15193,-1.71443 -1.61621,-1.98114 0.53245,-2.45627 0.8268,-2.01274 0.38382,-2.56356 -2.01366,-2.07155 -1.96076,1.03827 -1.24186,-0.50642 -0.26353,-2.29344 -0.94406,-2.48622 -0.96691,-0.52391 -2.50027,-1.71315 -2.1151,-2.19947 -1.72979,-2.68316 -1.12448,-4.09737 0.6324,-3.37337 0.14658,-2.4277 2.52071,-2.2 0.54802,-2.10277 1.18523,-2.36704 -0.50032,-2.04761 -1.35453,-0.96638 0.7838,-2.45964 3.33898,-0.7566 2.28511,-0.93694 0.58617,-1.07124 1.62805,-3.09267 0.28963,-3.70296 -1.09623,-1.0845 -1.59929,-0.9407 -0.47127,-1.46854 -1.1903,-0.62169 -0.69725,-0.99587 10.08202,-0.62363 10.20217,-0.74251 7.52845,-0.50468"
     style="fill:none;stroke:#222222;stroke-width:0.5px;stroke-opacity:1"
     id="path6290"
     sodipodi:nodetypes="ccccccccccccccccccccccccccccccccccccccccccccccccccccccccccccccccccc" />
  <path
     class="choroplethlocation"
     fill="rgba(0, 0, 0, 0)"
     d="m 447.34745,204.22095 10.55539,-0.96695 9.36276,-1.17634 0.12162,1.0277 1.44673,12.22506 1.41075,13.05161 1.10895,9.38179 -0.59896,0.65072 1.12491,2.65207 -0.2796,1.07737 -1.74002,0.20363 -1.46234,1.44462 -2.47751,-0.2994 0.0262,2.66417 -1.36476,1.19495 -1.0963,2.43873 -1.44692,0.50405 -1.87355,4.25514 -2.15107,-0.93528 -0.84099,-1.53576 -1.493,2.81546 -1.07252,1.61265 -2.3175,-1.27833 -2.32235,1.49568 -0.69688,1.33884 -3.45127,-1.766 -2.0411,1.6862 -2.80849,-0.7977 -0.009,1.50444 -1.3897,-0.22956 0.1761,-2.79055 1.1873,-3.68649 1.90022,-3.17267 0.48043,-2.24053 0.85878,-1.00209 -0.15422,-1.72167 -0.75087,-2.36245 -0.88348,-0.84714 0.73076,-3.88204 -1.2623,-15.61323 -1.39404,-15.58611"
     style="fill:none;stroke:#222222;stroke-width:0.5px;stroke-opacity:1"
     id="path6292"
     sodipodi:nodetypes="ccccccccccccccccccccccccccccccccccccccccc" />
  <path
     class="choroplethlocation"
     fill="rgba(0, 0, 0, 0)"
     d="m 351.82859,185.07407 10.58631,-0.0103 13.22674,-0.41319 14.10568,-0.40552 12.72516,-0.32194 0.1605,0.6808 1.37224,2.11186 -0.83139,1.07644 0.13974,2.75033 0.57185,1.23495 0.62083,2.15204 3.37784,1.08352 1.00815,2.01405 0.69725,0.99587 1.1903,0.62169 0.47127,1.46854 1.59929,0.9407 1.09623,1.0845 -0.28963,3.70296 -1.62805,3.09267 -0.58617,1.07124 -2.28511,0.93694 -3.33898,0.7566 -0.7838,2.45964 1.35453,0.96638 0.50032,2.04761 -1.18523,2.36704 -0.54802,2.10277 -2.52071,2.2 -0.14658,2.4277 -1.37037,-1.08776 -2.07034,-2.09515 -11.01419,0.77389 -11.55687,0.42843 -9.06675,0.14836 -9.06776,0.0628 -0.79186,-2.41597 0.38893,-2.41762 -0.26519,-2.41614 -1.04509,-3.91057 -0.64905,-1.61023 -0.77754,-0.46056 0.003,-3.10477 -0.64207,-2.18521 -1.79511,-2.53349 0.004,-1.14914 -0.63239,-2.18554 -0.37767,-1.3802 0.006,-1.26338 -1.52308,-1.50141 0.7773,-2.17677 0.51988,-2.17807 0.26096,-1.49052 -1.25589,-1.84252 0.0197,-3.2112 z"
     style="stroke:#222222;stroke-width:0.5px;stroke-opacity:1;fill:none"
     id="path6294" />
  <path
     class="choroplethlocation"
     fill="rgba(0, 0, 0, 0)"
     d="m 292.08085,271.08461 1.25974,-19.7824 1.33264,-20.92708 17.72732,0.96583 13.23926,0.50896 23.44598,0.45674 14.04397,0.002 2.40244,1.82283 1.32736,-0.0136 0.28747,1.95513 -1.30505,2.54828 0.68013,1.2604 1.36955,2.86519 2.69684,1.23173 0.0767,14.5208 0.21076,14.51949 -9.38837,0.0926 -19.05342,-0.0805 -19.18651,-0.44467 -10.48586,-0.39736 -10.61904,-0.51374 z"
     style="stroke:#222222;stroke-width:0.5px;stroke-opacity:1;fill:none"
     id="path6296" />
  <path
     class="choroplethlocation"
     fill="rgba(0, 0, 0, 0)"
     d="m 425.67963,277.4314 2.25118,-1.65834 1.57778,-1.26828 -0.28796,-2.05867 0.17576,-1.39916 -0.5628,-2.03892 0.73267,-1.32421 2.79853,0.48506 2.70932,1.06247 1.28365,-1.25754 -0.6401,-2.83922 2.23455,-1.3362 1.82852,-1.19196 -1.06094,-1.18387 1.07396,-1.93984 -0.22282,-1.02221 1.38992,0.22956 0.009,-1.50444 2.80849,0.7977 2.0411,-1.6862 3.45127,1.766 0.69688,-1.33884 2.32235,-1.49568 2.3175,1.27833 1.07252,-1.61265 1.493,-2.81546 0.84099,1.53576 2.15107,0.93528 1.87355,-4.25514 1.44692,-0.50405 1.0963,-2.43873 1.36476,-1.19495 -0.0262,-2.66417 2.47751,0.2994 1.46234,-1.44462 1.74002,-0.20363 0.2796,-1.07737 -1.12491,-2.65207 0.59896,-0.65072 3.49122,-0.18686 1.90117,1.15982 3.17632,2.62218 2.27177,0.75559 1.73993,0.82036 2.365,-0.66013 1.98151,0.54856 2.03293,-1.09059 1.9746,-0.50547 1.0739,1.82819 2.05338,0.99069 0.44674,1.21697 0.27118,2.87165 1.50622,1.88052 0.83519,1.97582 1.7357,1.49558 1.31703,1.43826 2.06732,-0.0722 -0.93323,1.18679 -2.69448,3.42143 -3.04435,2.06411 -0.11237,1.17959 -0.90204,1.52279 -2.53453,1.86258 -0.1215,0.13292 -0.12154,0.13291 -0.65246,1.36801 -1.57163,0.79332 -0.5193,0.30196 -2.9209,1.19897 -7.11862,1.25115 -9.44196,0.53856 -3.00876,0.5696 -6.10861,0.31008 -6.22377,0.51602 -5.81169,0.43934 -6.60319,0.93672 -0.32575,-0.55026 -2.07311,0.17557 0.1825,2.18154 z"
     style="stroke:#222222;stroke-width:0.5px;stroke-opacity:1;fill:none"
     id="path6298" />
  <path
     class="choroplethlocation"
     fill="rgba(0, 0, 0, 0)"
     d="m 381.24334,371.25925 -0.78999,-1.46733 1.16569,-1.96851 1.61647,-1.86707 0.086,-2.6318 -0.92426,-0.89251 0.97268,-3.22681 0.71137,-1.5056 0.91748,-4.94708 -1.0894,-1.80451 -1.4134,-3.05862 -0.96221,-3.07199 -0.78628,-2.04578 -1.80505,-1.56604 -1.0295,-14.32702 10.76013,-0.274 12.19082,-0.902 9.46363,0.0199 0.91314,0.75809 -0.91856,2.0018 1.74598,2.66888 -0.35474,1.62751 1.59047,2.32942 -1.54095,1.45952 -0.31083,2.54275 -2.10495,2.17255 -0.89342,2.91283 -0.88273,3.25438 -1.41399,1.55684 0.75357,3.40425 9.99432,-0.16732 10.8736,-0.54595 -0.15551,2.1897 -0.5976,2.33234 0.85184,1.54944 1.60327,1.49856 0.4529,2.2615 0.3849,1.23431 0.16574,0.21792"
     style="fill:none;stroke:#222222;stroke-width:0.5px;stroke-opacity:1"
     id="path6300"
     sodipodi:nodetypes="ccccccccccccccccccccccccccccccccccccccc" />
  <path
     class="choroplethlocation"
     fill="rgba(0, 0, 0, 0)"
     d="m 600.54149,157.80887 -0.94839,0.37755 -0.97045,-1.6386 -2.24738,-1.53103 0.037,-1.31653 -7.74471,-23.51501"
     style="fill:none;stroke:#222222;stroke-width:0.5px;stroke-opacity:1"
     id="path6302"
     sodipodi:nodetypes="cccccc" />
  <path
     class="choroplethlocation"
     fill="rgba(0, 0, 0, 0)"
     d="m 553.41531,236.51335 -0.22459,-0.42485 -0.69589,-1.38777 -1.61374,0.91251 -1.46446,-0.41284 0.60774,-3.17668 1.11936,-1.28273 0.35117,-0.30599 -0.0961,-1.15626 1.09068,-1.39709 -1.61582,-1.20076 -0.65394,0.83724 -2.13881,-1.09936 -2.2633,-0.37378 0.0648,-0.36509 0.30278,-1.23426 -1.51406,-0.7586 -1.24809,-0.10799 -0.28462,-0.0619 -1.11675,-1.54351 -1.6811,-1.66992 -3.33391,-0.41944 -1.6407,1.36356 -0.98948,1.2392 -2.98952,-0.0349 -1.1963,1.62282 -1.86928,0.92196 -1.42816,1.89278 -1.38202,1.4137 -1.06394,-6.83141 9.31436,-1.5657 3.11663,-0.7012 7.18308,-1.38618 8.60563,-1.7347 8.84965,-1.86846 4.31063,16.75094 6.74237,-1.48579 m -2.03855,6.47413 -2.34534,0.74995 -0.89398,1.01983"
     style="fill:none;stroke:#222222;stroke-width:0.5px;stroke-opacity:1"
     id="path6304"
     sodipodi:nodetypes="cccccccccccccccccccccccccccccccccccccccc" />
  <path
     class="choroplethlocation"
     fill="rgba(0, 0, 0, 0)"
     d="m 601.72703,179.86457 -0.911,-1.8991 -1.9145,-1.15554 -1.53761,-3.27901 -4.05133,1.30175 -8.94308,1.92512 -7.42973,1.58809 -0.20156,-9.52584 7.97118,-1.74256 11.50231,-2.86878 0.62897,-1.59404 1.72727,-1.41539 1.19485,0.0333"
     style="fill:none;stroke:#222222;stroke-width:0.5px;stroke-opacity:1"
     id="path6306"
     sodipodi:nodetypes="ccccccccccccc" />
  <path
     class="choroplethlocation"
     fill="rgba(0, 0, 0, 0)"
     d="m 435.51569,159.94978 -1.36473,-1.48558 0.42218,-2.21479 -2.08535,0.066 0.30255,-2.20249 0.51041,-1.18929 -1.00731,-1.74493 -2.26092,-0.72448 -0.78466,-2.10822 -1.83347,-0.0792 -2.54112,0.20085 -5.61754,-1.9806 -8.24111,-1.84596 -0.8694,-2.34067 -1.46931,-0.36691 m 71.90441,59.28446 -3.70512,0.59998 -4.49247,0.56689 -4.99551,0.72052 -0.12162,-1.0277 -9.36276,1.17634 -10.55539,0.96695"
     style="fill:none;stroke:#222222;stroke-width:0.5px;stroke-opacity:1"
     id="path6308"
     sodipodi:nodetypes="cccccccccccccccccccccc" />
  <path
     class="choroplethlocation"
     fill="rgba(0, 0, 0, 0)"
     d="m 393.10545,141.13145 -2.48933,0.89777 0.41514,7.50267 -0.24678,-0.10436 -2.24806,1.56721 -2.01669,1.43978 -1.25923,2.43801 2.15972,2.43857 -0.6167,3.44817 0.12455,3.65361 -0.26957,2.98297 2.93545,2.41422 1.11977,0.0725 3.17914,1.82018 1.03251,0.87297 0.81042,1.45462 2.47092,2.18189 3.34132,1.78976 0.43238,1.1256 0.1602,3.20503 0.33187,1.59047 -12.72516,0.32194 -14.10568,0.40552 -13.22674,0.41319 -10.58631,0.0103 0.18445,-12.60004 -1.04294,-12.92187 -1.70749,-1.03902 -0.8388,-2.06106 0.5034,-1.82089 2.08037,-1.46777 0.13277,-1.93701 0.0144,-2.50639 -0.47134,-2.05252 -0.82977,-2.16812 -0.46066,-2.73346 0.023,-2.95525 -0.35257,-0.79814 -0.32556,-3.86338 -0.10319,-1.81631 -0.10472,-1.58867 -0.44875,-2.72435 -1.03503,-2.72855 -1.03104,-2.5014 -0.089,-2.37597 -0.0856,-2.60013 0.25379,-1.69087 0.13516,-1.57856 -0.79028,-1.92735 -0.21614,-1.243"
     style="fill:none;stroke:#222222;stroke-width:0.5px;stroke-opacity:1"
     id="path6310"
     sodipodi:nodetypes="cccccccccccccccccccccccccccccccccccccccccccccccccc" />
  <path
     class="choroplethlocation"
     fill="rgba(0, 0, 0, 0)"
     d="m 430.48392,362.98185 -0.16574,-0.21792 -0.3849,-1.23431 -0.4529,-2.2615 -1.60327,-1.49856 -0.85184,-1.54944 0.5976,-2.33234 0.15551,-2.1897 -10.8736,0.54595 -9.99432,0.16732 -0.75357,-3.40425 1.41399,-1.55684 0.88273,-3.25438 0.89342,-2.91283 2.10495,-2.17255 0.31083,-2.54275 1.54095,-1.45952 -1.59047,-2.32942 0.35474,-1.62751 -1.74598,-2.66888 0.91856,-2.0018 -0.91309,-0.75809 0.44519,-2.6682 -1.48295,-3.4911 0.12642,-3.2287 2.19869,-4.83403 0.9978,-2.81753 1.89829,-1.94756 1.09551,-0.86842 1.35298,-3.76626 -0.11424,-1.95311 1.92912,-1.03708 0.072,-1.1575 10.74798,-0.7069 11.89849,-0.5671 1.06768,2.56771 -0.56402,17.58732 -0.15898,21.66519 1.93635,20.52231"
     style="fill:none;stroke:#222222;stroke-width:0.5px;stroke-opacity:1"
     id="path6312"
     sodipodi:nodetypes="ccccccccccccccccccccccccccccccccccccccc" />
  <path
     class="choroplethlocation"
     fill="rgba(0, 0, 0, 0)"
     d="m 424.30649,283.99034 -6.97943,0.44178 0.62149,-1.30682 1.02333,-1.56289 1.15899,-1.57272 -0.934,-1.55774 -12.25871,-0.121 -11.24414,0.49961 -11.80773,0.27512 -13.05896,0.15652 0.0486,-6.22361 -0.21076,-14.51949 -0.0767,-14.5208 -2.69684,-1.23173 -1.36955,-2.86519 -0.68013,-1.2604 1.30505,-2.54828 -0.28747,-1.95513 -1.32736,0.0136 -2.40244,-1.82283 -1.34147,-2.87054 -1.59227,-1.71941 -1.71904,-2.06695 -0.13411,-1.15097 9.06776,-0.0628 9.06675,-0.14836 11.55687,-0.42843 11.01419,-0.77389 2.07034,2.09515 1.37037,1.08776 -0.6324,3.37338 1.12448,4.09737 1.72979,2.68316 2.1151,2.19947 2.50027,1.71315 0.96691,0.52391 0.94406,2.48622 0.26353,2.29344 1.24186,0.50642 1.96076,-1.03827 2.01366,2.07155 -0.38382,2.56356 -0.8268,2.01274 -0.53245,2.45627 1.61621,1.98114 2.15193,1.71443 1.23124,0.0373 2.9119,2.69672 1.12213,0.38639 0.9031,3.17279 -0.13219,2.08835 1.46628,3.24877 1.21374,-0.43181 1.93795,1.94054 -0.17576,1.39916 0.28796,2.05867 -1.57778,1.26828 -2.25118,1.65834 -0.19104,1.28337 -0.56219,2.0012 z"
     style="stroke:#222222;stroke-width:0.5px;stroke-opacity:1;fill:none"
     id="path6314" />
  <path
     class="choroplethlocation"
     fill="rgba(0, 0, 0, 0)"
     d="m 284.08594,108.37011 -1.83247,24.25713 -0.89577,16.25073 -1.52992,12.24034 -15.79861,-1.71512 -16.90351,-1.78649 -14.64143,-2.02442 -18.41141,-2.63321 -1.06495,6.66134 -0.21293,0.54528 -0.97596,-0.96792 -0.56422,-1.94521 -1.02606,-0.6306 -1.7904,2.48786 -2.13837,-0.008 -5.24909,-1.70767 -0.47975,1.3102 -2.95961,-1.10087 -2.05506,1.60946 -1.08141,-3.79945 -0.74821,-2.11239 -1.88412,-0.6951 -0.31949,-0.98937 0.0414,-3.59575 -1.37621,-2.00078 -0.29972,-4.35508 -0.73864,-1.99851 -1.01369,-0.54241 -1.304,1.60767 -2.10528,1.21862 -1.41642,-1.67361 0.54288,-3.38082 1.22867,-0.57162 -0.0333,-3.60689 1.48919,-3.18879 1.65317,-2.80724 -2.81005,-0.66788 -1.85991,-2.34219 -1.76964,-4.5316 -1.1089,-2.31328 -1.72887,-1.63274 -1.303,-2.47467 0.49012,-2.32961 -1.55974,-4.03529 2.21748,-13.734606"
     style="fill:none;stroke:#222222;stroke-width:0.5px;stroke-opacity:1"
     id="path6316"
     sodipodi:nodetypes="ccccccccccccccccccccccccccccccccccccccccccccc" />
  <path
     class="choroplethlocation"
     fill="rgba(0, 0, 0, 0)"
     d="m 294.67323,230.37513 0.022,-0.34482 0.84139,-13.2129 -20.06188,-1.48986 2.27421,-26.7987 18.9901,1.41549 14.57646,0.82117 19.53654,0.74034 2.49586,1.78712 3.66623,1.11641 0.77521,-0.55844 2.29014,0.0426 3.5642,-0.0598 2.52596,1.75298 2.6677,1.17329 0.37426,1.15137 0.89072,0.58055 1.66112,0.23913 0.37767,1.3802 0.63239,2.18554 -0.004,1.14914 1.79511,2.53349 0.64207,2.18521 -0.003,3.10477 0.77754,0.46056 0.64905,1.61023 1.04509,3.91057 0.26519,2.41614 -0.38893,2.41762 0.79186,2.41597 0.13411,1.15097 1.71904,2.06695 1.59227,1.71941 1.34147,2.87054 -14.04397,-0.002 -23.44598,-0.45674 -13.23926,-0.50896 z"
     style="stroke:#222222;stroke-width:0.5px;stroke-opacity:1;fill:none"
     id="path6318" />
  <path
     class="choroplethlocation"
     fill="rgba(0, 0, 0, 0)"
     d="m 149.5507,182.32709 29.10206,6.18402 -12.77049,66.50371 -1.9271,10.7757 -0.63533,0.34714 -1.07877,1.90364 -1.26358,-0.83164 -1.88065,-1.30694 -2.19287,-0.43386 -1.00088,1.44487 0.46399,1.9716 -0.58399,2.9369 -0.21759,2.53967 0.0387,2.70738 -1.23147,2.57244 -14.2288,-20.60104 -14.63004,-21.63594 -14.68731,-22.51035 10.15217,-39.34763 28.54676,6.89247 z"
     style="stroke:#222222;stroke-width:0.5px;stroke-opacity:1;fill:none"
     id="path6320" />
  <path
     class="choroplethlocation"
     fill="rgba(0, 0, 0, 0)"
     d="m 599.7628,161.23259 -1.19485,-0.0333 -1.72727,1.41539 -0.62897,1.59404 -11.50231,2.86878 -1.07822,-1.14871 0.29,-1.96746 -0.74962,-3.47959 0.17063,-0.87159 -0.54491,-3.17458 0.44703,-2.83438 0.44603,-1.29685 0.29435,-3.38731 -0.30062,-2.16935 0.0191,-1.42364 1.54377,-0.99115 1.76036,-2.1162 -0.0763,-1.75443 -1.2129,-1.69168 0.14465,-3.82046 m 2.80483,-4.76485 7.74471,23.51501 -0.037,1.31653 2.24738,1.53103 0.97045,1.6386 0.94839,-0.37755"
     style="fill:none;stroke:#222222;stroke-width:0.5px;stroke-opacity:1"
     id="path6322"
     sodipodi:nodetypes="cccccccccccccccccccccccccc" />
  <path
     class="choroplethlocation"
     fill="rgba(0, 0, 0, 0)"
     d="m 565.08719,212.49396 1.80081,-1.69622 0.47207,-0.9312 1.92309,-2.32027 0.95914,-1.75224 -3.84806,-2.67353 -0.45509,-1.43189 -1.2298,-0.0797 -0.34664,-2.16352 0.77481,-1.94179 -0.88694,-1.57067 1.27738,-1.46543 0.96775,-3.40323 1.1403,-0.84928 8.71573,3.52599 0.2535,2.77851"
     style="fill:none;stroke:#222222;stroke-width:0.5px;stroke-opacity:1"
     id="path6324"
     sodipodi:nodetypes="cccccccccccccccc" />
  <path
     class="choroplethlocation"
     fill="rgba(0, 0, 0, 0)"
     d="m 207.73282,339.38062 10.45623,-75.73914 16.43077,2.13109 16.60086,1.87548 18.00513,1.7204 12.66186,1.01524 -0.49221,6.66496 -2.61975,35.47369 -1.86914,25.3098 -10.42764,-0.82102 -20.24268,-1.88531 -10.2535,-1.10231 0.0185,1.15598 1.07889,2.3122"
     style="fill:none;stroke:#222222;stroke-width:0.5px;stroke-opacity:1"
     id="path6326"
     sodipodi:nodetypes="cccccccccccccc" />
  <path
     class="choroplethlocation"
     fill="rgba(0, 0, 0, 0)"
     d="m 576.60519,196.51952 -0.2535,-2.77851 -8.71573,-3.52599 -1.85097,-0.52305 -1.84841,-0.52664 -1.05987,-1.7661 -0.0741,-1.51527 -1.41035,-0.98084 -2.6125,-1.65839 -13.10082,2.78849 -14.15138,2.79422 -15.20776,2.75285 -0.62532,-3.62393 m 53.23079,-48.59924 0.50048,2.58394 0.0705,1.8656 1.0371,3.75124 1.09136,1.8553 -0.2958,3.01773 1.66267,3.13354 -0.12407,2.15317 0.23035,0.416 1.495,-0.24583 2.14528,10.93223 0.20164,9.52584 1.79542,10.2128 1.029,0.93541 -1.73224,1.71798 0.65567,1.61793 0.20753,0.3053"
     style="fill:none;stroke:#222222;stroke-width:0.5px;stroke-opacity:1"
     id="path6328"
     sodipodi:nodetypes="cccccccccccccccccccccccccccccc" />
  <path
     class="choroplethlocation"
     fill="rgba(0, 0, 0, 0)"
     d="m 548.24953,297.93171 -14.38188,-10.50656 -12.07274,1.90531 -0.23847,-1.47708 -2.04444,-2.0033 -0.8524,0.9517 -0.3203,-1.1147 -5.12177,0.21701 -9.95081,1.36257 -5.42792,3.08926 -1.07676,0.49649 -13.5135,1.64269 -0.072,-2.89087 2.14418,-1.07988 0.65273,-1.59116 1.1945,-1.77738 2.19048,-0.63159 2.43708,-0.90165 2.34071,-1.59218 0.8193,-1.27361 1.94424,-1.31354 -0.14222,-1.02679 2.37905,-2.19353 1.00905,1.13682 3.49866,-3.18026 1.9853,0.0577 1.31775,-2.52525 1.98149,-0.8809 -0.43112,-1.91559 0.0157,-1.75037 -4.08532,0.84447 4.08532,-0.84447 17.91485,-2.29871 20.93498,-3.66805 11.15288,-2.3196 9.90263,-2.1823 1.22225,-0.26199"
     style="fill:none;stroke:#222222;stroke-width:0.5px;stroke-opacity:1"
     id="path6330"
     sodipodi:nodetypes="ccccccccccccccccccccccccccccccccccccc" />
  <path
     class="choroplethlocation"
     fill="rgba(0, 0, 0, 0)"
     d="m 345.22307,111.37399 0.21614,1.243 0.79028,1.92735 -0.13516,1.57856 -0.25379,1.69087 0.0856,2.60013 0.089,2.37597 1.03104,2.5014 1.03503,2.72855 0.44875,2.72435 0.10472,1.58867 0.10319,1.81631 0.32556,3.86338 0.35257,0.79814 -0.023,2.95525 0.46066,2.73346 0.82977,2.16812 0.47134,2.05252 -0.0144,2.50639 -17.7393,0.40505 -15.17743,-0.52006 -19.16782,-1.02854 -17.6981,-1.20489 0.89577,-16.25073 1.83247,-24.25713"
     style="fill:none;stroke:#222222;stroke-width:0.5px;stroke-opacity:1"
     id="path6332"
     sodipodi:nodetypes="ccccccccccccccccccccccccc" />
  <path
     class="choroplethlocation"
     fill="rgba(0, 0, 0, 0)"
     d="m 509.00964,193.16154 2.92976,17.82174 -1.31443,0.91497 0.66734,1.64092 0.10992,3.13204 -0.47291,3.69358 -0.59032,3.01188 0.0877,1.38594 -2.27721,3.51163 -1.08083,0.86929 -1.26779,0.54701 -1.3564,-0.0241 -1.90233,2.62058 -0.037,2.45271 -0.0772,1.29343 -0.84591,0.7094 -0.35424,-1.46174 -1.37965,-0.14453 -1.02801,3.17952 0.30007,2.98425 -1.2071,2.03883 -2.49781,0.70725 -2.05338,-0.99069 -1.0739,-1.82819 -1.9746,0.50547 -2.03293,1.09059 -1.98151,-0.54856 -2.365,0.66013 -1.73993,-0.82036 -2.27177,-0.75559 -3.17632,-2.62218 -1.90117,-1.15982 -3.49113,0.18688 -1.10895,-9.38179 -1.41075,-13.05161 -1.44673,-12.22506 4.99551,-0.72052 4.49247,-0.56689 3.70512,-0.59998"
     style="fill:none;stroke:#222222;stroke-width:0.5px;stroke-opacity:1"
     id="path6334"
     sodipodi:nodetypes="ccccccccccccccccccccccccccccccccccccccc" />
  <path
     class="choroplethlocation"
     fill="rgba(0, 0, 0, 0)"
     d="m 281.88767,270.38369 10.19318,0.70092 10.06188,0.59031 10.61904,0.51374 10.48586,0.39736 19.18651,0.44467 19.05342,0.0805 9.38837,-0.0926 -0.0486,6.22361 2.45911,14.2467 -0.0679,13.12474 -0.0956,11.84824 -4.79159,-2.57832 -3.17803,-1.34802 -2.43786,0.93774 -3.88495,-0.21316 -2.30133,0.11816 -2.01561,1.0334 -1.72979,0.57058 -1.72546,-0.69684 -3.60605,0.78089 -1.70605,-2.31513 -1.74787,1.93579 -3.01126,-0.95912 -3.12951,-2.11999 -3.3314,1.31655 -1.36701,-3.24973 -5.16631,0.10363 -3.13311,-0.77946 -3.69354,-1.03781 -1.61623,-2.93304 -2.8889,0.81544 -1.67289,-1.10094 -2.64761,-1.60508 0.54282,-12.88068 0.56259,-13.34973 -10.68984,-0.50691 -10.68391,-0.61948 -10.67679,-0.73197 z"
     style="stroke:#222222;stroke-width:0.5px;stroke-opacity:1;fill:none"
     id="path6336" />
  <path
     class="choroplethlocation"
     fill="rgba(0, 0, 0, 0)"
     d="m 99.571734,109.50982 1.934616,0.7036 2.78024,0.83169 1.84901,1.85365 2.33353,1.51437 0.93305,2.88125 -0.39935,2.25821 0.19738,1.95638 1.95619,1.15422 2.26415,0.52425 3.77814,-0.36243 2.23715,0.14611 3.02547,1.41906 1.23469,1.04339 2.12226,0.0976 2.26746,-0.45885 4.09758,1.19279 3.67235,-0.58443 2.02112,-0.5442 2.21882,1.14704 3.63254,-0.50659 18.70369,4.27986 1.59211,2.92335 1.30176,1.45439 0.0377,2.11038 -1.20296,1.48886 -2.05536,3.05466 -2.26439,3.94526 -2.5311,2.24536 -1.98691,2.60057 -0.48085,2.12082 1.5006,1.27764 0.35492,1.83991 -1.58549,3.63621 -5.56118,23.57289 -0.0252,0.11214 -28.54676,-6.89247 -40.132562,-11.42826"
     style="fill:none;stroke:#222222;stroke-width:0.5px;stroke-opacity:1"
     id="path6338"
     sodipodi:nodetypes="cccccccccccccccccccccccccccccccccccccc" />
  <path
     class="choroplethlocation"
     fill="rgba(0, 0, 0, 0)"
     d="m 515.69456,187.95636 0.62532,3.62393 15.20776,-2.75285 14.15138,-2.79422 13.10082,-2.78849 2.6125,1.65839 1.41035,0.98084 0.0741,1.51527 1.05987,1.7661 1.84841,0.52664 1.85097,0.52305 -1.1403,0.84928 -0.96775,3.40323 -1.27738,1.46543 0.88694,1.57067 -0.77481,1.94179 0.34664,2.16352 1.2298,0.0797 0.45509,1.43189 3.84806,2.67353 -0.95914,1.75224 -1.92309,2.32027 -0.47207,0.9312 -1.80081,1.69622 -2.35381,-0.19217 -0.78637,0.76017 -0.43045,1.15383 -8.84965,1.86846 -8.60563,1.7347 -7.18308,1.38618 -3.11663,0.7012 -9.31436,1.5657 -10.49033,1.78354 -2.01751,-12.27234 -2.92976,-17.82174"
     style="fill:none;stroke:#222222;stroke-width:0.5px;stroke-opacity:1"
     id="path6340"
     sodipodi:nodetypes="ccccccccccccccccccccccccccccccccccc" />
  <path
     class="choroplethlocation"
     fill="rgba(0, 0, 0, 0)"
     d="m 595.29148,181.92163 -1.97889,-7.08896 4.05132,-1.30173 1.53761,3.27901 1.9145,1.15554 0.911,1.8991"
     style="fill:none;stroke:#222222;stroke-width:0.5px;stroke-opacity:1"
     id="path6342"
     sodipodi:nodetypes="cccccc" />
  <path
     class="choroplethlocation"
     fill="rgba(0, 0, 0, 0)"
     d="m 526.92937,326.67797 -1.99834,-0.37774 -1.10689,-0.40542 -0.39338,-2.49296 -1.55046,-2.31176 -2.25329,-1.15925 0.27503,-1.08807 -0.94946,-1.36332 -1.19186,-2.95352 -3.98682,-2.0664 -1.76525,-2.98896 -2.8917,-1.78023 -0.96274,-1.60191 -4.30328,-2.63332 -1.61666,-2.21052 -2.71358,-3.91846 -1.94738,-0.54476 -3.27348,-1.87919 1.35227,-2.73697 1.10994,-1.3128 1.0767,-0.49649 5.42792,-3.08926 9.95081,-1.36257 5.12177,-0.21701 0.3203,1.1147 0.8524,-0.9517 2.04444,2.0033 0.23847,1.47708 12.07274,-1.90531 14.38188,10.50656"
     style="fill:none;stroke:#222222;stroke-width:0.5px;stroke-opacity:1"
     id="path6344"
     sodipodi:nodetypes="cccccccccccccccccccccccccccccc" />
  <path
     class="choroplethlocation"
     fill="rgba(0, 0, 0, 0)"
     d="m 351.14035,151.22641 -0.13277,1.93701 -2.08037,1.46777 -0.5034,1.82089 0.8388,2.06106 1.70749,1.03902 1.04294,12.92187 -0.18445,12.60004 -1.26026,-0.007 -0.0197,3.2112 1.25589,1.84252 -0.26096,1.49052 -0.51988,2.17807 -0.7773,2.17677 1.52308,1.50141 -0.006,1.26338 -1.66112,-0.23913 -0.89072,-0.58055 -0.37426,-1.15137 -2.6677,-1.17329 -2.52596,-1.75298 -3.5642,0.0598 -2.29014,-0.0426 -0.77521,0.55844 -3.66623,-1.11641 -2.49586,-1.78712 -19.53654,-0.74034 -14.57646,-0.82117 -18.9901,-1.41549 2.07887,-27.41054 1.52992,-12.24034 17.6981,1.20489 19.16782,1.02854 15.17743,0.52006 z"
     style="stroke:#222222;stroke-width:0.5px;stroke-opacity:1;fill:none"
     id="path6346" />
  <path
     class="choroplethlocation"
     fill="rgba(0, 0, 0, 0)"
     d="m 418.84638,297.95304 1.19508,-1.3417 -0.38215,-3.89827 1.57982,-1.82928 0.27506,-2.3253 1.87946,-1.39105 0.84982,-2.01849 0.063,-1.15861 0.61991,-3.27437 0.56219,-2.0012 0.19104,-1.28337 15.25384,-1.04498 -0.1825,-2.18154 2.07311,-0.17557 0.32575,0.55026 6.60319,-0.93672 5.81169,-0.43934 6.22377,-0.51602 6.10861,-0.31008 3.00876,-0.5696 9.44196,-0.53856 7.11862,-1.25115 2.9209,-1.19897 0.5193,-0.30196 -0.5193,0.30196 -2.9209,1.19897 15.74183,-1.71286 1.21978,-0.2957 4.08532,-0.84447 -0.0157,1.75037 0.43112,1.91559 -1.98149,0.8809 -1.31775,2.52525 -1.9853,-0.0577 -3.49866,3.18026 -1.00905,-1.13682 -2.37905,2.19353 0.14222,1.02679 -1.94424,1.31354 -0.8193,1.27361 -2.34071,1.59218 -2.43708,0.90165 -2.19048,0.63159 -1.1945,1.77738 -0.65273,1.59116 -2.14418,1.07988 0.072,2.89087 -5.75808,0.81053 -8.32549,0.83074 -13.97455,1.32037 -13.69757,1.2223 -11.89849,0.5671 z"
     style="stroke:#222222;stroke-width:0.5px;stroke-opacity:1;fill:none"
     id="path6348" />
  <path
     class="choroplethlocation"
     fill="rgba(0, 0, 0, 0)"
     d="m 240.69334,342.6119 -3.22284,-4.61571 -0.39033,-0.50451 -1.07889,-2.3122 -0.0185,-1.15598 10.2535,1.10231 20.24268,1.88531 10.42764,0.82102 1.86914,-25.3098 2.61975,-35.47369 10.67679,0.73197 10.68391,0.61948 10.68984,0.50691 -0.56259,13.34973 -0.54282,12.88068 2.64761,1.60508 1.67289,1.10094 2.8889,-0.81544 1.61623,2.93304 3.69354,1.03781 3.13311,0.77946 5.16631,-0.10363 1.36701,3.24973 3.3314,-1.31655 3.12951,2.11999 3.01126,0.95912 1.74787,-1.93579 1.70605,2.31513 3.60605,-0.78089 1.72546,0.69684 1.72979,-0.57058 2.01561,-1.0334 2.30133,-0.11816 3.88495,0.21316 2.43786,-0.93774 3.17803,1.34802 4.79159,2.57832 0.59233,0.90999 2.16165,-0.26794 2.60086,0.0633 -0.56485,7.71132 1.02951,14.32706 1.80505,1.56604 0.78628,2.04578 0.96221,3.07199 1.4134,3.05862 1.0894,1.80451 -0.91748,4.94708 -0.71137,1.5056 -0.97268,3.22681 0.92426,0.89251 -0.086,2.6318 -1.61647,1.86707 -1.16569,1.96851 0.78999,1.46733"
     style="fill:none;stroke:#222222;stroke-width:0.5px;stroke-opacity:1"
     id="path6350"
     sodipodi:nodetypes="ccccccccccccccccccccccccccccccccccccccccccccccccccccccc" />
  <path
     class="choroplethlocation"
     fill="rgba(0, 0, 0, 0)"
     d="m 178.65276,188.51111 29.06831,4.99449 -2.0862,13.06087 19.84557,3.30493 -7.29139,53.77008 -15.28441,-2.346 -20.14249,-3.42177 -16.87988,-2.85889 z"
     style="stroke:#222222;stroke-width:0.5px;stroke-opacity:1;fill:none"
     id="path6352" />
  <path
     class="choroplethlocation"
     fill="rgba(0, 0, 0, 0)"
     d="m 585.86279,134.9501 -0.14465,3.82046 1.2129,1.69168 0.0763,1.75443 -1.76036,2.1162 -1.54377,0.99115 -0.0191,1.42364 0.30062,2.16935 -0.29435,3.38731 -0.44603,1.29685 -0.44703,2.83438 0.54491,3.17458 -0.17063,0.87159 0.74962,3.47959 -0.29,1.96746 1.07818,1.14871 -7.97118,1.74256 -2.14528,-10.93223 -1.495,0.24583 -0.23035,-0.416 0.12407,-2.15317 -1.66267,-3.13354 0.2958,-3.01773 -1.09136,-1.8553 -1.0371,-3.75124 -0.0705,-1.8656 -0.50048,-2.58394"
     style="fill:none;stroke:#222222;stroke-width:0.5px;stroke-opacity:1"
     id="path6354"
     sodipodi:nodetypes="ccccccccccccccccccccccccccc" />
  <path
     class="choroplethlocation"
     fill="rgba(0, 0, 0, 0)"
     d="m 569.64165,256.43439 -1.22225,0.26199 -9.90263,2.1823 -11.15288,2.3196 -20.93498,3.66805 -17.91485,2.29871 -4.08532,0.84447 -1.21978,0.2957 -15.74183,1.71286 2.9209,-1.19897 0.5186,-0.30193 1.57163,-0.79332 0.65246,-1.36801 0.12154,-0.13291 0.1215,-0.13292 2.53453,-1.86258 0.90204,-1.52279 0.11237,-1.17959 3.04435,-2.06411 2.69448,-3.42143 0.93323,-1.18679 0.74665,2.21917 1.10502,0.88342 0.30626,0.18706 1.8053,0.89254 2.12056,-1.60742 0.88061,-0.6029 1.383,0.83393 3.09819,-1.54074 0.6604,-0.22264 0.008,-0.81829 -0.0732,-0.45513 1.29352,0.25803 1.07138,-1.1085 0.13542,-0.0221 1.39157,0.005 1.57063,-1.42874 0.0214,-0.70461 -0.0759,-0.45471 -0.40051,-1.56897 0.94696,-2.61257 1.72686,-2.0456 0.20686,-2.02284 0.70327,-1.52365 0.62581,-1.16032 0.55534,-3.13725 1.51029,0.7893 1.64613,0.76342 1.36554,-0.8277 0.3097,-1.34307 0.77851,-1.77888 0.43858,-1.36721 0.27462,-0.75234 0.89826,0.4225 1.14614,-1.96667 1.00219,-1.23914 0.66659,-0.82663 0.31174,-0.52676 0.75411,-1.07844 0.12734,-2.95454 0.004,-0.70407 5.35834,2.38065 0.43867,0.14994 0.70021,-2.71809 0.28462,0.0619 1.24809,0.10799 1.51406,0.7586 -0.30278,1.23426 -0.0648,0.36509 2.2633,0.37378 2.13881,1.09936 1.01925,0.96995 0.15983,0.79066 0.0961,1.15626 -0.35117,0.30599 -1.11936,1.28273 -0.60774,3.17668 1.46446,0.41284 1.61374,-0.91251 0.69589,1.38777 0.22459,0.42485 m 13.87573,1.21145 0.89398,-1.01983 2.34534,-0.74995"
     style="fill:none;stroke:#222222;stroke-width:0.5px;stroke-opacity:1"
     id="path6356"
     sodipodi:nodetypes="cccccccccccccccccccccccccccccccccccccccccccccccccccccccccccccccccccccccccccccccccccc" />
  <path
     class="choroplethlocation"
     fill="rgba(0, 0, 0, 0)"
     d="m 170.15119,90.770236 -3.60597,16.565164 -3.85093,18.22752 0.37806,2.18535 -0.64053,2.30852 -18.70369,-4.27988 -3.63254,0.50659 -2.21882,-1.14704 -2.02112,0.5442 -3.67235,0.58443 -4.09758,-1.19279 -2.26746,0.45885 -2.12226,-0.0976 -1.23469,-1.04339 -3.02547,-1.41906 -2.23715,-0.14611 -3.77814,0.36243 -2.26415,-0.52425 -1.95619,-1.15422 -0.19738,-1.95638 0.39935,-2.25821 -0.93305,-2.88125 -2.33353,-1.51437 -1.84901,-1.85365 -2.78024,-0.83169 -1.934614,-0.7036"
     style="fill:none;stroke:#222222;stroke-width:0.5px;stroke-opacity:1"
     id="path6358"
     sodipodi:nodetypes="cccccccccccccccccccccccccc" />
  <path
     class="choroplethlocation"
     fill="rgba(0, 0, 0, 0)"
     d="m 503.59476,254.85272 -2.06732,0.0722 -1.31703,-1.43826 -1.7357,-1.49558 -0.83519,-1.97582 -1.50622,-1.88052 -0.27118,-2.87165 -0.44674,-1.21697 2.49781,-0.70725 1.2071,-2.03883 -0.30007,-2.98425 1.02801,-3.17952 1.37965,0.14453 0.35424,1.46174 0.84591,-0.7094 0.0772,-1.29343 0.037,-2.45271 1.90233,-2.62058 1.3564,0.0241 1.26779,-0.54701 1.08083,-0.86929 2.27721,-3.51163 -0.0877,-1.38594 0.59032,-3.01188 0.47291,-3.69358 -0.10992,-3.13204 -0.66734,-1.64092 1.31443,-0.91497 2.01748,12.27231 10.49033,-1.78354 1.06394,6.83141 1.38202,-1.4137 1.42816,-1.89278 1.86928,-0.92196 1.1963,-1.62282 2.98952,0.0349 0.98948,-1.2392 1.6407,-1.36356 3.33391,0.41944 1.6811,1.66992 1.11675,1.54351 -0.70021,2.71809 -0.43867,-0.14994 -5.35834,-2.38065 -0.004,0.70407 -0.12734,2.95454 -0.75411,1.07844 -0.31174,0.52676 -0.66659,0.82663 -1.00219,1.23914 -1.14614,1.96667 -0.89826,-0.4225 -0.27462,0.75234 -0.43858,1.36721 -0.77851,1.77888 -0.3097,1.34307 -1.36554,0.8277 -1.64613,-0.76342 -1.51029,-0.7893 -0.55534,3.13725 -0.62581,1.16032 -0.70327,1.52365 -0.20686,2.02284 -1.72686,2.0456 -0.94696,2.61257 0.40051,1.56897 0.0759,0.45471 -0.0214,0.70461 -1.57063,1.42874 -1.39157,-0.005 -0.13542,0.0221 -1.07138,1.1085 -1.29352,-0.25803 0.0732,0.45513 -0.008,0.81829 -0.6604,0.22264 -3.09819,1.54074 -1.383,-0.83393 -0.88061,0.6029 -2.12056,1.60742 -1.8053,-0.89254 -0.30626,-0.18706 -1.10502,-0.88342 z"
     style="stroke:#222222;stroke-width:0.5px;stroke-opacity:1;fill:none"
     id="path6360" />
  <path
     class="choroplethlocation"
     fill="rgba(0, 0, 0, 0)"
     d="m 436.70484,195.15638 -7.52845,0.50468 -10.20217,0.74251 -10.08202,0.62363 -1.00815,-2.01405 -3.37784,-1.08352 -0.62083,-2.15204 -0.57185,-1.23495 -0.13974,-2.75033 0.83139,-1.07644 -1.37224,-2.11186 -0.16046,-0.68088 -0.33187,-1.59047 -0.1602,-3.20503 -0.43238,-1.1256 -3.34132,-1.78976 -2.47092,-2.18189 -0.81042,-1.45462 -1.03251,-0.87297 -3.17914,-1.82018 -1.11977,-0.0725 -2.93545,-2.41422 0.26957,-2.98297 -0.12455,-3.65361 0.6167,-3.44817 -2.15972,-2.43857 1.25923,-2.43801 2.01669,-1.43978 2.24806,-1.56721 0.24678,0.10436 -0.41514,-7.50267 2.48933,-0.89777 9.09572,-3.16152 5.76062,4.11993 0.12685,0.10648 0.58723,-0.26279 1.46931,0.36691 0.8694,2.34067 8.24111,1.84596 5.61754,1.9806 2.54112,-0.20085 1.83347,0.0792 0.78466,2.10822 2.26092,0.72448 1.00731,1.74493 -0.51041,1.18929 -0.30255,2.20249 2.08535,-0.066 -0.42218,2.21479 1.36473,1.48558"
     style="fill:none;stroke:#222222;stroke-width:0.5px;stroke-opacity:1"
     id="path6362"
     sodipodi:nodetypes="cccccccccccccccccccccccccccccccccccccccccccccccccc" />
  <path
     class="choroplethlocation"
     fill="rgba(0, 0, 0, 0)"
     d="m 212.79494,160.16569 0.21293,-0.54528 1.06495,-6.66134 18.41141,2.63321 14.64143,2.02442 16.90351,1.78649 15.79861,1.71512 -2.07887,27.41054 -2.27421,26.7987 -10.029,-0.78877 -20.00721,-2.1232 -9.98573,-1.21954 -9.97232,-1.32464 -19.84557,-3.30493 2.0862,-13.06087 5.28302,-33.07473 z"
     style="stroke:#222222;stroke-width:0.5px;stroke-opacity:1;fill:none"
     id="path6364" />
  <g
     class="funnelarealayer"
     id="g6384" />
  <g
     class="pielayer"
     id="g6386" />
  <g
     class="iciclelayer"
     id="g6388" />
  <g
     class="treemaplayer"
     id="g6390" />
  <g
     class="sunburstlayer"
     id="g6392" />
  <g
     class="glimages"
     id="g6394" />
  <defs
     id="topdefs-b18bcc">
    <g
       class="clips"
       id="g6396" />
  </defs>
  <g
     class="layer-above"
     id="g6403">
    <g
       class="imagelayer"
       id="g6399" />
    <g
       class="shapelayer"
       id="g6401" />
  </g>
  <g
     class="infolayer"
     id="g6407">
    <g
       class="g-gtitle"
       id="g6405" />
  </g>
  <rect
     style="fill:none;stroke-width:0.377953"
     id="rect13282"
     width="232.68781"
     height="119.37965"
     x="154.45056"
     y="-8.246048"
     inkscape:export-filename="/home/kavi/temp.png"
     inkscape:export-xdpi="280.54999"
     inkscape:export-ydpi="280.54999" />
</svg>
